<?xml version="1.0" standalone="no"?>
<!DOCTYPE svg PUBLIC "-//W3C//DTD SVG 20010904//EN"
 "http://www.w3.org/TR/2001/REC-SVG-20010904/DTD/svg10.dtd">
<svg version="1.0" xmlns="http://www.w3.org/2000/svg"
 width="400.000000pt" height="400.000000pt" viewBox="0 0 400.000000 400.000000"
 preserveAspectRatio="xMidYMid meet">
<metadata>
Created by potrace 1.15, written by Peter Selinger 2001-2017
</metadata>
<g transform="translate(0.000000,400.000000) scale(0.100000,-0.100000)"
fill="#000000" stroke="none">
<path d="M1889 3743 c0 -5 0 -30 1 -58 l2 -50 -42 53 c-62 77 -74 71 -65 -30
4 -46 9 -86 11 -90 13 -21 23 -2 26 48 l3 55 39 -50 c57 -76 70 -70 61 32 -8
86 -10 97 -26 97 -5 0 -9 -3 -10 -7z"/>
<path d="M2172 3676 c-16 -85 -15 -116 2 -116 9 0 16 12 18 33 3 30 6 32 39
32 45 0 69 19 69 56 0 35 -32 59 -80 59 l-37 0 -11 -64z"/>
<path d="M2377 3682 c-57 -63 -44 -162 22 -162 51 0 81 43 81 116 0 55 -68 85
-103 46z"/>
<path d="M1424 3632 l-31 -17 31 -77 c17 -43 36 -78 43 -78 16 0 16 10 3 45
-15 39 14 45 50 10 20 -19 34 -25 47 -21 16 7 14 10 -14 34 -26 23 -30 32 -26
60 10 59 -38 80 -103 44z"/>
<path d="M2541 3585 c-16 -35 -32 -73 -36 -85 -10 -32 18 -24 39 11 21 36 33
29 42 -26 9 -59 28 -65 32 -10 2 25 7 45 12 45 17 0 40 32 40 54 0 27 -13 40
-63 61 l-37 15 -29 -65z"/>
<path d="M2928 3377 c-77 -92 -73 -83 -41 -112 56 -50 90 -44 137 24 35 49 30
78 -18 114 l-34 26 -44 -52z"/>
<path d="M911 3274 c-30 -38 -27 -51 23 -100 49 -49 62 -53 98 -24 42 32 41
66 -2 111 -46 48 -88 53 -119 13z"/>
<path d="M1377 3107 c-3 -9 -18 -17 -34 -19 -57 -6 -32 -50 81 -145 35 -29 38
-35 32 -68 -5 -27 -4 -35 8 -35 10 0 14 10 14 30 -1 41 4 44 49 29 51 -17 73
-37 54 -48 -20 -13 -17 -60 5 -76 29 -21 97 -36 105 -23 4 6 12 7 18 4 14 -9
53 3 46 14 -10 16 12 19 31 5 10 -8 31 -15 45 -15 35 0 46 -43 18 -71 -27 -27
-24 -36 17 -44 44 -8 53 -1 31 23 -33 36 -9 104 29 85 10 -6 36 -13 56 -17 43
-8 58 -25 34 -38 -23 -13 -20 -21 15 -37 31 -14 44 -9 51 20 3 14 15 12 93
-14 88 -29 95 -30 283 -29 162 0 197 3 218 17 14 9 35 15 47 15 12 -1 40 -2
62 -1 37 2 39 3 21 16 -14 10 -45 15 -103 15 -46 0 -83 3 -83 6 0 4 25 56 55
116 30 60 55 113 55 118 0 4 -14 13 -31 19 -30 10 -35 8 -86 -34 -46 -37 -58
-43 -75 -34 -22 12 -256 3 -323 -12 -56 -12 -235 -11 -235 1 0 6 20 10 44 10
91 0 75 9 -189 106 -55 20 -111 41 -125 47 -14 6 -27 11 -30 12 -3 1 -32 10
-65 19 -33 10 -64 21 -70 24 -13 8 -39 13 -106 19 -44 4 -57 1 -62 -10z"/>
<path d="M736 3059 c-14 -17 -26 -36 -26 -43 0 -19 133 -107 145 -95 6 6 0 18
-19 33 -39 31 -27 48 32 44 58 -4 69 17 13 27 -29 5 -42 13 -47 28 -14 47 -61
50 -98 6z"/>
<path d="M575 2769 c-4 -6 -5 -11 -4 -13 2 -1 24 -15 48 -31 l45 -30 -57 -3
c-69 -4 -74 -18 -17 -56 22 -14 40 -29 40 -32 0 -3 -24 -4 -52 -3 -40 2 -54 0
-56 -12 -2 -11 11 -15 60 -17 35 -1 75 -5 91 -8 43 -9 34 26 -16 61 l-42 30
59 5 c33 3 61 10 63 15 2 8 -136 105 -151 105 -3 0 -8 -5 -11 -11z"/>
<path d="M1268 2628 c-12 -17 -25 -22 -65 -22 -28 -1 -46 -4 -40 -8 7 -4 -8
-8 -32 -8 -35 0 -42 -3 -37 -15 4 -10 -3 -19 -19 -25 -27 -10 -40 -30 -50 -80
-4 -19 -20 -47 -36 -62 -16 -15 -29 -35 -28 -45 0 -16 2 -15 16 5 24 34 32 26
18 -15 -7 -21 -16 -61 -20 -90 l-7 -51 57 -7 c59 -8 211 15 271 40 29 13 32
18 43 90 20 136 32 265 26 275 -3 6 -22 10 -41 10 -33 0 -46 13 -21 23 7 4 6
6 -4 6 -9 1 -23 -9 -31 -21z m82 -51 c0 -36 -19 -187 -31 -248 -13 -67 -20
-71 -133 -93 -83 -17 -136 -20 -175 -9 -21 5 -23 10 -18 48 4 24 19 86 34 140
23 83 32 101 61 123 39 30 145 60 215 61 43 1 47 -1 47 -22z"/>
<path d="M1384 2639 c16 -10 18 -20 11 -93 -3 -44 -13 -117 -21 -161 -7 -44
-14 -92 -14 -106 0 -17 -9 -33 -26 -44 -38 -24 -217 -56 -304 -54 -82 2 -96
-9 -53 -44 33 -26 29 -40 -8 -32 -24 6 -30 4 -27 -6 6 -18 101 -31 201 -27 42
2 77 -1 77 -5 0 -5 -60 -7 -134 -6 -74 2 -137 1 -141 -3 -4 -3 -1 -22 5 -40
l13 -34 233 -1 234 0 0 32 c0 42 -29 55 -122 55 -39 0 -69 2 -66 5 11 11 110
15 150 6 l40 -9 23 49 c38 82 82 99 146 56 45 -30 69 -80 69 -146 0 -46 2 -53
18 -48 183 55 185 56 199 41 8 -8 19 -14 24 -14 11 0 29 44 28 68 0 10 -5 6
-11 -10 -11 -31 -23 -36 -32 -12 -8 22 -7 37 4 54 9 13 11 13 21 0 8 -12 10
-12 7 5 -2 12 -11 20 -23 20 -12 0 -21 -8 -23 -20 -2 -11 -9 -24 -14 -30 -8
-7 -9 -4 -4 8 3 10 6 26 6 35 0 10 9 23 21 30 26 16 49 1 49 -34 0 -12 5 -26
11 -29 6 -4 8 -13 5 -21 -7 -18 -2 -18 33 1 32 16 41 49 41 158 0 65 -2 71
-32 101 -58 57 -526 303 -594 312 -33 4 -36 3 -20 -7z m140 -94 l36 -15 0 -80
c0 -44 -1 -80 -2 -80 -2 0 -32 11 -68 23 l-65 23 4 54 c6 92 22 105 95 75z
m114 -49 l42 -20 0 -73 c0 -40 -1 -73 -2 -73 -2 0 -23 6 -48 14 l-45 13 -3 83
c-2 45 1 80 5 78 4 -1 27 -12 51 -22z"/>
<path d="M3405 2643 c-34 -9 -55 -35 -55 -68 0 -61 51 -80 130 -49 47 19 61
53 39 93 -12 21 -23 26 -54 28 -22 0 -49 -1 -60 -4z"/>
<path d="M2475 2521 c-69 -10 -101 -21 -132 -47 -12 -11 -64 -48 -117 -84 -52
-35 -94 -66 -92 -67 2 -2 53 22 114 54 61 32 114 54 118 50 9 -9 24 0 -141
-80 l-140 -68 0 -76 0 -76 50 -14 c28 -8 55 -18 60 -22 6 -5 35 -16 65 -26 30
-10 64 -21 75 -26 114 -47 400 -89 601 -89 l132 0 17 43 c9 24 15 59 13 78
l-3 34 -85 -4 c-88 -3 -161 13 -241 54 -51 27 -194 130 -274 199 -39 33 -80
66 -91 73 -18 11 -18 12 3 12 12 1 43 -17 68 -39 25 -22 48 -40 49 -40 2 0 18
6 36 14 48 20 99 3 150 -49 37 -37 41 -46 30 -60 -7 -8 -28 -15 -48 -15 l-36
0 47 -30 c83 -53 200 -92 271 -91 71 0 116 16 116 40 0 9 -9 30 -21 46 -11 17
-24 40 -29 53 -7 17 -18 22 -45 22 -29 0 -43 8 -71 38 -24 26 -33 43 -29 58 4
18 -9 33 -65 79 l-69 57 -113 3 c-62 2 -140 0 -173 -4z m317 -48 l33 -33 -129
0 c-121 0 -132 2 -174 26 -24 15 -40 29 -34 33 6 3 69 6 141 6 l131 0 32 -32z
m-321 -150 c32 -31 59 -62 59 -70 0 -24 -60 -41 -228 -62 -90 -12 -170 -21
-178 -21 -25 0 -18 67 9 84 54 34 244 126 260 126 10 0 45 -25 78 -57z"/>
<path d="M510 2490 c-25 -25 -26 -72 -2 -93 9 -9 40 -19 68 -22 45 -6 55 -4
73 14 42 42 21 96 -44 111 -58 14 -73 12 -95 -10z"/>
<path d="M3467 2455 c-42 -7 -80 -14 -83 -18 -13 -13 9 -26 36 -21 27 6 29 3
39 -34 6 -22 18 -43 27 -46 54 -21 89 17 78 83 -4 23 -9 43 -13 44 -3 2 -41
-2 -84 -8z"/>
<path d="M498 2316 c-19 -9 -24 -21 -26 -63 l-3 -51 53 -7 c67 -8 120 -3 125
12 3 7 -9 13 -29 15 -29 3 -33 7 -38 38 -4 20 -9 41 -13 47 -11 17 -43 22 -69
9z"/>
<path d="M3400 2266 c0 -11 15 -16 53 -18 l52 -3 -32 -18 c-41 -22 -41 -32 -3
-56 37 -22 29 -31 -27 -31 -23 0 -43 -4 -43 -10 0 -6 37 -10 90 -10 104 0 117
13 45 48 -25 12 -45 25 -45 30 0 4 20 18 45 30 74 36 61 52 -45 52 -72 0 -90
-3 -90 -14z"/>
<path d="M1510 2148 c-22 -15 -38 -38 -47 -65 -13 -37 -13 -49 1 -98 13 -43
23 -58 47 -71 38 -19 83 -11 104 19 21 31 19 41 -5 17 -11 -11 -24 -20 -28
-20 -20 0 -45 42 -49 84 -5 39 -2 48 22 72 l27 27 26 -26 c19 -20 26 -36 25
-64 -1 -33 0 -35 8 -15 15 39 -12 113 -51 140 -18 12 -36 22 -40 22 -4 0 -22
-10 -40 -22z"/>
<path d="M2171 2052 c91 -58 257 -137 331 -158 29 -8 69 -19 88 -25 58 -17
241 -28 301 -18 30 5 80 22 110 39 l54 30 -126 0 c-128 0 -289 18 -414 45 -38
9 -83 18 -100 22 -16 3 -35 10 -41 15 -7 5 -16 8 -20 7 -11 -3 -123 33 -176
55 -55 24 -57 20 -7 -12z"/>
<path d="M1735 1920 c-17 -7 -17 -9 -2 -9 14 -1 17 -10 17 -47 l0 -45 -163 2
c-90 1 -169 -1 -175 -5 -6 -4 -8 -14 -5 -22 4 -11 8 -12 13 -5 4 8 57 11 166
9 l159 -3 -1 -55 0 -55 -37 -3 -37 -3 0 -70 c0 -83 -6 -85 -108 -37 -37 17
-72 30 -79 29 -9 -1 -11 21 -9 84 2 80 1 85 -18 85 -18 0 -21 -6 -21 -49 0
-27 3 -47 8 -44 4 2 7 -12 7 -31 0 -38 -24 -52 -33 -18 -4 16 -5 16 -6 0 -1
-12 -9 -18 -26 -18 -23 0 -25 4 -25 45 0 27 -5 45 -11 45 -8 0 -9 -11 -5 -32
4 -21 1 -37 -8 -47 -13 -14 -10 -29 25 -120 21 -57 41 -106 43 -109 9 -8 52 7
74 27 13 10 43 22 69 26 41 6 54 2 124 -34 100 -52 131 -53 212 -4 53 32 70
37 118 37 47 -1 64 -7 108 -38 76 -52 117 -52 206 1 81 47 145 54 200 19 22
-14 55 -33 73 -43 32 -17 33 -17 59 9 25 25 67 152 57 170 -3 4 -82 5 -176 3
-134 -4 -175 -8 -188 -20 -25 -23 -29 -19 -32 36 l-3 51 -125 1 -125 2 -6 65
c-9 107 -20 100 162 100 99 0 159 -4 159 -10 0 -5 5 -10 10 -10 14 0 13 27 -2
36 -6 4 -83 6 -170 5 l-158 -2 0 45 c0 37 4 46 18 47 9 1 2 6 -16 12 -18 5
-34 8 -36 6 -2 -2 -7 -67 -10 -143 -4 -77 -9 -143 -12 -148 -3 -4 -41 -8 -85
-8 -77 0 -79 1 -79 24 0 15 -7 26 -20 29 -19 5 -20 14 -20 126 0 130 -2 134
-55 111z"/>
<path d="M3360 1867 c0 -7 22 -19 51 -26 57 -15 55 -22 -13 -41 -42 -11 -78
-35 -67 -44 9 -7 144 -46 161 -46 39 0 16 28 -34 42 l-53 14 65 21 c80 25 90
47 28 63 -24 6 -59 15 -78 21 -47 12 -60 11 -60 -4z"/>
<path d="M2440 1801 c0 -34 -3 -41 -20 -41 -18 0 -20 -7 -20 -85 l0 -86 103 3
102 3 1 99 c1 55 0 105 -3 112 -2 6 -30 15 -61 19 -31 3 -67 9 -79 12 -21 5
-23 2 -23 -36z"/>
<path d="M1491 1369 c-73 -37 -72 -40 34 -93 301 -151 651 -150 953 1 50 25
92 49 92 53 0 10 -120 70 -140 70 -10 0 -54 -18 -98 -40 -46 -23 -94 -40 -113
-40 -47 0 -116 26 -153 57 -26 21 -37 24 -79 20 -33 -3 -56 -12 -75 -29 -41
-38 -66 -48 -122 -48 -41 0 -66 8 -124 40 -40 22 -82 40 -93 40 -11 0 -48 -14
-82 -31z"/>
<path d="M3115 1247 c-30 -32 -54 -75 -92 -168 -28 -68 -54 -136 -58 -151 -7
-26 -62 -75 -72 -64 -4 3 2 23 12 45 20 46 14 61 -23 61 -39 0 -82 -30 -138
-96 -27 -33 -53 -62 -59 -66 -5 -4 -7 -9 -4 -13 3 -3 18 7 32 21 23 23 28 24
33 10 3 -9 12 -16 20 -16 24 0 15 -17 -20 -38 -18 -11 -46 -36 -61 -56 -24
-32 -26 -39 -16 -67 6 -18 10 -34 8 -35 -2 -2 -63 -10 -137 -18 -126 -14 -488
-55 -800 -91 -74 -8 -211 -24 -305 -35 -93 -11 -228 -27 -300 -35 -422 -46
-512 -58 -532 -67 -19 -9 -29 -27 -61 -107 -6 -15 39 -13 168 8 36 6 182 26
325 46 143 19 276 37 295 40 67 10 386 56 605 86 121 17 297 41 390 54 404 57
477 66 482 61 3 -3 -11 -44 -30 -91 -20 -47 -33 -85 -29 -85 4 0 27 42 52 92
52 106 37 98 236 122 76 10 175 24 219 31 157 27 356 48 366 38 25 -25 -31
-94 -106 -133 -45 -23 -105 -81 -105 -100 0 -13 -2 -13 61 9 98 34 176 88 205
143 20 38 17 85 -6 108 -24 24 -97 26 -270 6 -328 -39 -511 -58 -516 -53 -4 3
8 36 26 74 18 37 41 87 51 111 12 27 28 46 45 53 38 14 47 0 35 -52 -21 -91
-9 -99 63 -44 l46 35 10 -25 c12 -31 47 -33 84 -4 22 17 26 18 26 4 0 -28 29
-28 70 -1 47 31 56 32 63 8 2 -12 17 -22 36 -25 54 -11 90 25 91 88 0 15 7 20
30 21 31 1 80 28 80 44 0 6 -13 4 -30 -5 -38 -20 -63 -19 -83 3 -15 16 -15 20
2 48 28 46 35 88 17 103 -42 35 -126 -63 -146 -168 -11 -61 -21 -76 -62 -97
-37 -19 -46 -1 -24 51 20 46 20 55 2 55 -7 0 -26 -26 -42 -57 -24 -47 -34 -59
-56 -61 -35 -4 -36 13 -7 69 11 23 18 43 16 45 -11 11 -36 -11 -51 -44 -11
-24 -31 -45 -56 -59 l-39 -21 6 57 c6 65 -7 80 -52 59 -38 -17 -40 -4 -11 57
14 31 26 60 26 65 0 5 26 24 57 42 77 44 143 108 143 139 0 29 -47 79 -75 79
-10 0 -37 -19 -60 -43z"/>
<path d="M844 1167 c-50 -20 -92 -55 -128 -110 -18 -29 -82 -126 -141 -217
-59 -91 -115 -176 -124 -190 -10 -14 -63 -93 -119 -176 -56 -83 -108 -156
-116 -163 -8 -7 -24 -10 -36 -6 -19 6 -19 4 -9 -19 24 -53 67 -25 150 97 23
34 62 89 86 122 60 84 155 216 243 341 157 222 171 234 260 234 85 0 113 -55
71 -138 -33 -64 -133 -122 -248 -142 -59 -11 -73 -17 -82 -37 l-11 -25 52 9
c202 32 312 -55 205 -161 -18 -17 -44 -37 -59 -43 -41 -18 -125 -5 -185 29
l-52 29 6 -38 c6 -43 22 -59 73 -73 89 -25 169 -7 242 56 64 54 87 95 88 152
0 39 -3 45 -45 74 l-45 32 52 33 c75 47 147 121 160 165 16 53 -13 103 -83
145 -46 28 -63 33 -114 32 -33 0 -74 -6 -91 -12z"/>
<path d="M1562 1077 c-34 -36 -130 -223 -157 -307 -26 -79 -49 -118 -95 -161
-46 -43 -70 -49 -70 -19 0 23 16 59 74 163 41 72 42 103 3 94 -80 -20 -102
-28 -147 -57 -57 -36 -84 -79 -97 -156 -17 -89 33 -149 89 -109 15 9 34 13 57
9 30 -5 44 0 79 25 l42 31 22 -20 c29 -27 66 -25 111 6 33 22 42 24 66 14 35
-14 68 -2 127 47 l45 36 27 -31 c35 -40 60 -46 98 -23 27 17 90 108 81 118 -2
1 -18 -13 -35 -32 -33 -36 -72 -52 -92 -40 -15 9 -6 74 19 141 18 47 20 49 67
56 27 4 62 9 77 12 27 6 28 5 21 -32 -4 -20 -11 -45 -16 -56 -6 -10 -7 -42 -3
-73 5 -44 11 -56 30 -63 52 -20 141 37 162 105 8 24 16 31 40 33 31 3 31 3 26
-38 -4 -30 -2 -45 8 -51 22 -14 33 -11 75 17 23 16 40 22 42 15 7 -20 37 -12
82 21 40 30 43 31 38 10 -4 -14 -2 -22 6 -22 16 0 39 26 60 67 9 18 31 49 49
70 28 32 29 35 8 24 -21 -12 -23 -11 -18 3 14 35 -14 12 -78 -64 -61 -73 -105
-104 -123 -86 -3 4 1 21 9 39 25 51 49 107 49 115 0 4 -25 5 -55 4 -49 -3 -61
-9 -104 -48 -27 -24 -62 -47 -79 -50 -26 -5 -30 -3 -35 25 -4 17 -15 34 -24
38 -37 13 -46 26 -25 37 68 38 112 102 112 161 0 30 -3 35 -24 35 -26 0 -69
-43 -148 -146 -48 -63 -56 -67 -140 -79 -51 -8 -62 3 -34 34 7 9 17 26 20 39
12 37 -22 27 -65 -19 -31 -34 -42 -40 -71 -37 -28 2 -33 0 -36 -20 -3 -18 2
-23 28 -28 36 -8 35 -18 -12 -98 -35 -61 -71 -100 -115 -127 -64 -40 -70 5
-16 110 28 56 34 74 24 84 -19 19 -42 -3 -86 -80 -57 -100 -84 -133 -106 -133
-15 0 -19 7 -19 35 0 44 17 73 95 155 72 76 110 137 124 200 12 54 7 82 -18
97 -15 10 -24 6 -49 -20z"/>
</g>
</svg>
